<svg width="183" height="61" viewBox="0 0 183 61" fill="none" xmlns="http://www.w3.org/2000/svg">
<path d="M161.481 11.4987L161.696 11.6045C161.792 11.6458 161.92 11.6933 162.084 11.7492C162.516 11.8486 162.962 11.967 163.423 12.1037C164.338 12.3088 165.21 12.5404 166.039 12.7996C166.94 13.0814 167.763 13.5091 168.455 14.1134L168.745 14.3825L169.036 14.6738L169.181 15.0579C169.485 15.8699 169.727 16.6407 169.805 17.2718C169.825 17.4307 169.85 17.5904 169.88 17.7505L169.985 18.2349L170.002 18.2998L170.013 18.3648C170.166 19.2321 170.294 20.1001 170.397 20.9683C170.543 21.8177 170.64 22.7377 170.694 23.724C170.925 24.5367 171.115 25.351 171.261 26.168C171.459 26.9661 171.633 27.785 171.782 28.6249C172.027 29.8013 172.274 30.9532 172.519 32.0802L172.7 32.8169C172.769 33.0741 172.841 33.3279 172.919 33.5777C173.199 33.5321 173.495 33.4853 173.809 33.4404L173.906 33.4293L176.131 33.227L176.658 34.5427L176.815 34.938C177.355 35.0444 177.909 35.2413 178.395 35.5967L178.688 35.8027C178.976 36.0157 179.247 36.249 179.5 36.5023C179.539 36.5406 179.568 36.5642 179.586 36.5784L182.536 37.7605L180.947 40.7444L180.938 40.7593L180.93 40.7723C180.312 41.8863 179.447 42.9137 178.386 43.8639L178.38 43.8676C177.697 44.4757 176.954 45.0158 176.155 45.4913C176.162 45.513 176.168 45.5356 176.175 45.5581L176.22 45.6917L176.244 45.829C176.4 46.7121 176.53 47.6185 176.633 48.5476C176.748 49.5812 176.746 50.6338 176.633 51.7023L176.598 52.0456L176.444 52.3536L176.34 52.5596C175.987 53.5249 175.484 54.4808 174.855 55.4285L174.857 55.4304C174.213 56.4268 173.426 57.3274 172.509 58.1304L172.504 58.136C171.624 58.8987 170.636 59.5344 169.55 60.0492C168.384 60.6018 167.15 60.9119 165.861 60.9733L165.598 60.9863L165.344 60.9269C164.678 60.7732 163.894 60.5323 163.296 60.0733C163.159 59.9699 162.99 59.8595 162.79 59.7393L162.751 59.717L162.714 59.6911C162.698 59.6803 162.693 59.6776 162.697 59.6799L162.297 59.5482L162.074 59.3255L159.814 58.3846L160.32 56.7349L160.493 56.1689C160.414 56.0912 160.323 55.9956 160.207 55.8925L160.164 55.8553L160.125 55.8164L160.124 55.8145L160.112 55.8034L160.111 55.8015L160.109 55.7997L160.099 55.7904L160.098 55.7885L160.096 55.7867L160.085 55.7755L160.083 55.7737L160.081 55.7718L160.072 55.7626L160.07 55.7607L160.068 55.7588L160.057 55.7477L160.055 55.7459L160.053 55.744L160.044 55.7347L160.042 55.7329L160.04 55.731L160.029 55.7199L160.027 55.718L160.025 55.7162L160.016 55.7069L160.014 55.705L160.012 55.7032L160.001 55.692L159.999 55.6902L159.997 55.6883L159.988 55.679L159.986 55.6772L159.984 55.6753L159.973 55.6642L159.971 55.6623L159.97 55.6605L159.96 55.6512L159.958 55.6494L159.957 55.6475L159.945 55.6364L159.944 55.6345L159.942 55.6327L159.933 55.6234L159.931 55.6215L159.929 55.6197L159.918 55.6085L159.916 55.6067L159.914 55.6048L159.905 55.5955L159.903 55.5937L159.901 55.5918L159.89 55.5807L159.888 55.5788L159.886 55.577L159.877 55.5677L159.875 55.5658L159.873 55.564L159.862 55.5529L159.86 55.551L159.858 55.5491L159.849 55.5399L159.847 55.538L159.845 55.5362L159.834 55.525L159.832 55.5232L159.831 55.5213L159.821 55.512L159.819 55.5102L159.818 55.5083L159.806 55.4972L159.805 55.4953L159.803 55.4935L159.793 55.4842L159.792 55.4823L159.79 55.4805L159.779 55.4694L159.777 55.4675L159.775 55.4656L159.766 55.4564L159.764 55.4545L159.762 55.4527L159.751 55.4415L159.749 55.4397L159.747 55.4378L159.738 55.4285L159.736 55.4267L159.734 55.4248L159.723 55.4137L159.721 55.4118L159.719 55.41L159.71 55.4007L159.708 55.3988L159.706 55.397L159.695 55.3858L159.693 55.384L159.691 55.3821L159.682 55.3729L159.68 55.371C159.508 55.1981 159.349 55.008 159.2 54.8069L155.897 51.114L158.914 50.3328L160.884 49.8206C161.367 49.6851 161.716 49.5464 161.959 49.4217C161.445 49.5455 160.91 49.6848 160.357 49.8429L160.344 49.8466C159.414 50.1052 158.46 50.3366 157.483 50.5425L157.444 50.5518L157.403 50.5573C156.392 50.726 155.296 50.806 154.124 50.806H152.876L152.743 50.7874C152.409 50.7397 152.05 50.691 151.664 50.6427L151.595 50.6334L151.526 50.6204L149.52 50.2196L149.29 48.9484C149.28 48.8936 149.267 48.8453 149.258 48.8019L149.221 48.7647C149.065 48.6087 148.91 48.4374 148.754 48.2544L148.467 49.2379L148.118 49.5868L148.116 49.5887L148.109 49.5961L148.107 49.5979L148.099 49.6054L148.098 49.6072L148.09 49.6146L148.088 49.6165L148.081 49.6239L148.079 49.6258L148.072 49.6332L148.07 49.6351L148.062 49.6425L148.06 49.6443L148.053 49.6518L148.051 49.6536L148.044 49.661L148.042 49.6629L148.035 49.6703L148.033 49.6722L148.025 49.6796L148.023 49.6814L148.016 49.6889L148.014 49.6907L148.007 49.6981L148.005 49.7L147.997 49.7074L147.996 49.7093L147.988 49.7167L147.986 49.7186L147.979 49.726L147.977 49.7278L147.97 49.7353L147.968 49.7371L147.96 49.7445L147.958 49.7464L147.951 49.7538L147.949 49.7557L147.942 49.7631L147.94 49.765L147.933 49.7724L147.931 49.7742L147.923 49.7817L147.921 49.7835L147.914 49.7909L147.912 49.7928L147.905 49.8002L147.903 49.8021L147.895 49.8095L147.894 49.8113L147.886 49.8188L147.884 49.8206L147.877 49.828C147.799 50.1175 147.713 50.407 147.617 50.6947C147.462 51.1597 147.307 51.6034 147.15 52.0233L147.144 52.0382C146.919 52.6254 146.715 53.2111 146.534 53.7955C146.445 54.1754 146.417 54.5441 146.447 54.9089L146.482 55.3246L146.34 55.7162L145.93 56.8444L145.718 57.1005C145.364 57.5261 144.957 57.8992 144.496 58.2065L144.398 58.2714L144.292 58.3253L144.289 58.3271L144.285 58.329L144.281 58.3308L144.276 58.3345L144.272 58.3364H144.268L144.266 58.3383L144.261 58.3401L144.259 58.342L144.255 58.3438L144.251 58.3457L144.25 58.3475L144.246 58.3494H144.242L144.24 58.3512L144.237 58.3531L144.233 58.355L144.229 58.3568L144.226 58.3587L144.22 58.3624L144.216 58.3642H144.213L144.211 58.3661L144.205 58.3679L144.203 58.3698L144.2 58.3717L144.196 58.3735L144.194 58.3754L144.19 58.3772H144.187L144.185 58.3791L144.181 58.3809L144.177 58.3828L144.174 58.3846L144.17 58.3865L144.164 58.3902L144.161 58.3921H144.157L144.155 58.3939L144.149 58.3958L144.148 58.3976L144.144 58.3995L144.14 58.4013L144.138 58.4032L144.135 58.4051H144.131L144.129 58.4069L144.125 58.4088L144.122 58.4106L144.118 58.4125L144.114 58.4143L144.109 58.418L144.105 58.4199H144.101L144.099 58.4218L144.094 58.4236L144.092 58.4255L144.088 58.4273L144.085 58.4292L144.083 58.431L144.079 58.4329H144.075L144.073 58.4348L144.07 58.4366L144.066 58.4385L144.062 58.4403L144.059 58.4422L144.053 58.4459L144.049 58.4477H144.046L144.044 58.4496L144.038 58.4515L144.036 58.4533L144.033 58.4552L144.029 58.457L144.027 58.4589L144.023 58.4607H144.02L144.018 58.4626L144.014 58.4644L144.01 58.4663L144.007 58.4682L144.003 58.47L143.997 58.4737L143.994 58.4756H143.99L143.988 58.4774L143.983 58.4793L143.981 58.4811L143.977 58.483L143.973 58.4849L143.971 58.4867L143.968 58.4886H143.964L143.962 58.4904L143.958 58.4923L143.955 58.4941L143.951 58.496L143.947 58.4978L143.942 58.5016L143.938 58.5034H143.934L143.933 58.5053L143.927 58.5071L143.925 58.509L143.921 58.5108L143.918 58.5127L143.916 58.5145L143.912 58.5164H143.908L143.907 58.5183L143.903 58.5201L143.899 58.522L143.895 58.5238L143.892 58.5257L143.886 58.5294L143.882 58.5312H143.879L143.877 58.5331L143.871 58.535L143.869 58.5368L143.866 58.5387L143.862 58.5405L143.86 58.5424L143.856 58.5442H143.853L143.851 58.5461L143.847 58.5479L143.844 58.5498L143.84 58.5517L143.836 58.5535L143.831 58.5572L143.827 58.5591H143.823L143.821 58.5609L143.816 58.5628L143.814 58.5646L143.81 58.5665L143.806 58.5684L143.805 58.5702L143.801 58.5721H143.797L143.795 58.5739L143.792 58.5758L143.788 58.5776L143.784 58.5795L143.78 58.5814L143.775 58.5851L143.771 58.5869H143.767L143.766 58.5888L143.76 58.5906L143.758 58.5925L143.754 58.5943L143.751 58.5962L143.749 58.5981L143.745 58.5999H143.742L143.74 58.6018L143.736 58.6036L143.732 58.6055L143.729 58.6073L143.725 58.6092L143.719 58.6129L143.716 58.6148H143.712L143.71 58.6166L143.704 58.6185L143.703 58.6203L143.699 58.6222L143.695 58.624L143.693 58.6259L143.69 58.6277H143.686L143.684 58.6296L143.68 58.6315L143.677 58.6333L143.673 58.6352L143.669 58.637L143.664 58.6407L143.66 58.6426H143.656L143.654 58.6444L143.649 58.6463L143.647 58.6482L143.643 58.65L143.64 58.6519L143.638 58.6537L143.634 58.6556H143.63L143.628 58.6574L143.625 58.6593L143.621 58.6611L143.617 58.663L143.614 58.6649L143.608 58.6686L143.604 58.6704H143.601L143.599 58.6723L143.593 58.6741C143.509 58.738 143.425 58.7957 143.341 58.8486L143.026 60.0065L140.936 60.3554L140.934 60.3535C140.407 60.4495 140.036 60.5218 139.81 60.5669L139.808 60.5632C139.436 60.6466 139.055 60.6783 138.696 60.6783H138.601L138.506 60.669L137.195 60.5373L136.752 60.1754C136.207 59.7288 135.78 59.378 135.476 59.1251L135.411 59.0694L135.35 59.0082C135.166 58.8235 134.935 58.6384 134.647 58.4589L134.347 58.2714L134.136 57.9875C133.882 57.6498 133.655 57.3147 133.475 56.991C133.309 56.6911 133.116 56.2843 133.04 55.8238C132.998 55.572 132.956 55.3434 132.915 55.1372C132.864 54.9694 132.817 54.7911 132.782 54.6046L130.536 52.5299L132.227 51.1456L132.398 51.0046L132.424 50.5759L132.441 50.2753L132.552 49.9932C133.555 47.4339 134.61 44.9719 135.716 42.6075L135.721 42.5927L135.729 42.5779C136.866 40.2521 138.028 37.8766 139.215 35.452L139.222 35.4372C139.604 34.6739 139.961 33.9121 140.294 33.1509L140.313 33.1064L141.114 31.5031C141.115 31.5003 141.118 31.4966 141.119 31.4938C141.121 31.4911 141.122 31.4872 141.123 31.4845L141.125 31.4808L141.129 31.4752L141.13 31.4715L141.132 31.466L141.134 31.4623L141.138 31.4567L141.14 31.453L141.142 31.4474L141.143 31.4437L141.147 31.4381L141.149 31.4344L141.151 31.4289L141.153 31.4251L141.156 31.4196L141.158 31.4159L141.16 31.4103L141.162 31.4066L141.166 31.401L141.168 31.3973L141.169 31.3917L141.171 31.388L141.175 31.3825L141.177 31.3788L141.179 31.3732L141.181 31.3695L141.184 31.3639L141.186 31.3602L141.188 31.3546L141.19 31.3509L141.194 31.3453L141.195 31.3416L141.197 31.3361L141.199 31.3324L141.203 31.3268L141.205 31.3231L141.207 31.3175L141.208 31.3138L141.212 31.3082L141.214 31.3045L141.216 31.299L141.218 31.2952L141.221 31.2897L141.223 31.286L141.225 31.2804L141.227 31.2767L141.231 31.2711L141.232 31.2674L141.234 31.2618L141.244 31.2433C141.245 31.2405 141.248 31.2368 141.249 31.234C141.251 31.2313 141.252 31.2274 141.253 31.2247V31.221C141.249 31.1519 141.247 31.0838 141.247 31.0169C141.247 30.5096 141.372 30.0423 141.531 29.6437L141.6 29.4711L141.7 29.3171C142.224 28.5056 142.64 27.8087 142.955 27.2239L142.957 27.2201L142.959 27.2146L142.963 27.2109L142.968 27.1997L142.97 27.1942L142.979 27.1756L142.981 27.17L142.985 27.1663L142.99 27.1552L142.992 27.1496L143 27.1348L143.002 27.1292L143.003 27.1255L143.007 27.1218L143.013 27.1107L143.015 27.1051L143.022 27.0902L143.024 27.0847L143.028 27.081L143.033 27.0698L143.035 27.0643L143.044 27.0457L143.046 27.0401L143.05 27.0364L143.055 27.0253L143.057 27.0197L143.065 27.0049L143.066 26.9993L143.068 26.9956L143.072 26.9919L143.078 26.9808L143.079 26.9752L143.087 26.9603L143.089 26.9548L143.092 26.9511L143.098 26.9399L143.1 26.9344L143.109 26.9158L143.111 26.9102L143.115 26.9065L143.12 26.8954L143.122 26.8898L143.13 26.875L143.131 26.8694L143.133 26.8657L143.137 26.862L143.143 26.8509L143.144 26.8453L143.152 26.8304L143.154 26.8249L143.157 26.8212L143.163 26.81L143.165 26.8045L143.174 26.7859L143.176 26.7803L143.18 26.7766L143.185 26.7655L143.187 26.7599L143.45 26.2329C143.457 26.2187 143.46 26.2153 143.467 26.2014L143.484 26.168C143.491 26.1542 143.492 26.15 143.499 26.1364L143.515 26.103C143.522 26.0888 143.525 26.0854 143.532 26.0715L143.549 26.0381C143.556 26.0243 143.557 26.0201 143.563 26.0065L143.58 25.9731C143.587 25.9589 143.59 25.9555 143.597 25.9416L143.614 25.9082C143.62 25.8944 143.622 25.8902 143.628 25.8766L143.645 25.8432C143.652 25.829 143.655 25.8256 143.662 25.8117L143.678 25.7783C143.685 25.7645 143.687 25.7603 143.693 25.7467L143.71 25.7133C143.717 25.6991 143.72 25.6957 143.727 25.6818L143.743 25.6484C143.75 25.6346 143.751 25.6304 143.758 25.6168L143.775 25.5834C143.782 25.5692 143.785 25.5658 143.792 25.5519L143.808 25.5185C143.815 25.5047 143.816 25.5005 143.823 25.4869L143.84 25.4535C143.847 25.4393 143.85 25.436 143.856 25.422L143.873 25.3886C143.88 25.3748 143.881 25.3706 143.888 25.357L143.905 25.3236C143.912 25.3094 143.914 25.3061 143.921 25.2921L143.938 25.2587C143.945 25.2449 143.946 25.2407 143.953 25.2271L143.97 25.1937C144.365 24.3539 144.76 23.5372 145.156 22.7442L145.177 22.7034L145.201 22.6626C145.259 22.5596 145.32 22.4578 145.381 22.3545C145.507 22.3668 145.627 22.3834 145.742 22.4065H146.855C147.102 22.357 147.325 22.3075 147.523 22.258C147.606 22.2162 147.689 22.1737 147.773 22.1318C147.432 22.6288 147.124 23.1153 146.855 23.5941C146.459 24.3859 146.064 25.2024 145.668 26.0436L144.63 28.122C144.284 28.7653 143.839 29.5076 143.295 30.3488C143.196 30.5963 143.146 30.819 143.146 31.0169C143.146 31.2148 143.171 31.388 143.22 31.5365L142.034 33.9118C141.687 34.7035 141.317 35.4953 140.921 36.2871C139.734 38.7118 138.572 41.0871 137.435 43.4129C136.347 45.7387 135.308 48.1635 134.319 50.6872L134.245 51.9491L133.429 52.6172L134.393 53.5079C134.492 53.6069 134.566 53.7553 134.616 53.9533C134.616 54.1512 134.665 54.3986 134.764 54.6955C134.814 54.943 134.863 55.2151 134.913 55.512C134.962 55.8089 135.209 56.2543 135.654 56.8481C136.05 57.0956 136.396 57.3677 136.693 57.6646C136.99 57.9121 137.41 58.2585 137.954 58.7038L138.696 58.7781C138.992 58.7781 139.24 58.7533 139.437 58.7038C139.685 58.6543 140.08 58.5801 140.624 58.4811L141.514 58.3327L141.737 57.5162C141.836 57.4667 141.959 57.4172 142.108 57.3677C142.306 57.2688 142.454 57.1698 142.553 57.0708L143.443 56.6255C143.74 56.4275 144.012 56.1801 144.259 55.8832L144.556 55.0667C144.506 54.4728 144.556 53.879 144.704 53.2852C144.902 52.6419 145.124 51.9986 145.372 51.3553C145.52 50.9594 145.668 50.5388 145.817 50.0934C145.965 49.648 146.089 49.2027 146.187 48.7573C146.286 48.6583 146.385 48.5841 146.484 48.5346L146.781 48.2377L147.152 46.9758C147.152 46.8769 147.177 46.7532 147.226 46.6047C147.275 46.4068 147.35 46.2831 147.449 46.2336L148.19 46.0851L148.487 45.3428C148.635 44.6995 148.858 44.081 149.155 43.4871C149.204 43.9325 149.352 44.3779 149.6 44.8232C149.451 45.4666 149.501 46.0109 149.748 46.4563C150.045 46.8521 150.317 47.1738 150.564 47.4212L150.861 47.7181C150.96 47.7676 151.058 48.0645 151.157 48.6089L151.899 48.7573C152.295 48.8068 152.666 48.8563 153.012 48.9058H154.124C155.212 48.9058 156.201 48.8315 157.092 48.6831C158.031 48.4851 158.946 48.2625 159.836 48.015C160.528 47.8171 161.196 47.6439 161.839 47.4954C162.531 47.347 163.372 47.3717 164.361 47.5697C164.46 48.8563 164.287 49.7718 163.842 50.3161C163.446 50.8604 162.63 51.3058 161.394 51.6522L159.391 52.1718L160.652 53.5821C160.751 53.7306 160.875 53.879 161.023 54.0275L161.468 54.4728C161.913 54.8687 162.21 55.1904 162.358 55.4378C162.506 55.6357 162.531 55.9327 162.432 56.3285L162.136 57.2935L163.026 57.6646C163.125 57.7141 163.224 57.7883 163.322 57.8873L162.727 59.6688L163.767 58.11C164.015 58.2585 164.237 58.4069 164.435 58.5554C164.682 58.7533 165.127 58.9265 165.77 59.075C166.809 59.0255 167.798 58.7781 168.737 58.3327C169.677 57.8873 170.518 57.343 171.259 56.6997C172.051 56.0069 172.718 55.2399 173.262 54.3986C173.856 53.5079 174.301 52.6419 174.597 51.8006L174.746 51.5037C174.845 50.5635 174.845 49.648 174.746 48.7573C174.647 47.8666 174.523 47.0006 174.375 46.1593C174.276 45.8624 174.202 45.5903 174.152 45.3428C174.152 45.0459 174.128 44.749 174.078 44.4521C175.215 43.9078 176.229 43.2397 177.119 42.448C178.059 41.6067 178.776 40.7407 179.27 39.85L179.864 38.7366L178.751 38.2912C178.553 38.1922 178.356 38.0438 178.158 37.8458C177.911 37.5984 177.639 37.3757 177.342 37.1778C177.045 36.9304 176.575 36.7819 175.933 36.7324C175.487 36.485 175.24 36.2376 175.191 35.9901L174.894 35.2479L174.078 35.3221C173.732 35.3716 173.41 35.4211 173.114 35.4706C172.867 35.52 172.619 35.5943 172.372 35.6932C172.273 35.6438 172.026 35.619 171.63 35.619C171.235 34.6293 170.913 33.5901 170.666 32.5014C170.419 31.3633 170.171 30.2004 169.924 29.0127C169.776 28.1715 169.603 27.355 169.405 26.5632C169.257 25.722 169.059 24.8807 168.812 24.0395C168.762 23.0003 168.663 22.0601 168.515 21.2188C168.416 20.3776 168.292 19.5363 168.144 18.6951C168.045 18.2992 167.971 17.9033 167.921 17.5075C167.872 17.1116 167.699 16.5177 167.402 15.726C166.908 15.2311 166.265 14.86 165.474 14.6126C164.682 14.3651 163.842 14.1425 162.952 13.9445C162.457 13.7961 161.987 13.6724 161.542 13.5734C161.097 13.4249 160.751 13.2765 160.504 13.128L159.539 12.5342L158.798 13.5734C157.71 15.2064 156.646 16.6167 155.608 17.8044C154.57 18.9425 153.358 19.8333 151.973 20.4766L151.476 20.4098C151.619 20.2395 151.786 20.0153 151.973 19.7343C152.026 19.2203 152.03 18.7509 151.988 18.3258C152.801 17.8488 153.533 17.2561 154.187 16.5425C155.157 15.4321 156.168 14.0944 157.218 12.5193L157.234 12.4934L157.253 12.4692L159.024 9.98633L161.481 11.4987ZM163.322 57.8873C163.471 57.9368 163.619 58.011 163.767 58.11L162.727 59.6688L163.322 57.8873ZM158.872 28.5674C159.317 30.1509 159.737 31.7592 160.133 33.3922C160.528 34.9757 160.899 36.5097 161.245 37.9943C159.762 38.2912 158.402 38.5139 157.166 38.6623C155.979 38.7613 154.644 38.8603 153.16 38.9593C152.913 39.0087 152.641 39.0335 152.344 39.0335C152.097 39.0335 151.825 39.0582 151.528 39.1077C151.776 38.6623 152.047 38.217 152.344 37.7716L153.234 36.4355C153.877 35.2974 154.644 34.085 155.534 32.7984C156.473 31.5117 157.438 30.3488 158.427 29.3097L158.872 28.5674ZM158 32.7C157.693 33.0858 157.384 33.4836 157.08 33.8988C156.343 34.9652 155.703 35.9713 155.152 36.9143C155.783 36.8674 156.38 36.82 156.943 36.7733C157.57 36.6979 158.233 36.6005 158.935 36.4838C158.728 35.6231 158.514 34.7454 158.291 33.8524L158.288 33.8394C158.195 33.4577 158.095 33.0789 158 32.7Z" fill="white"/>
<path d="M99.5361 18.6142V18.4986L99.5512 18.3848C99.6203 17.8561 99.7845 17.2006 100.225 16.6386L100.332 16.4923L100.479 15.7953L100.815 14.1881L103.429 14.3813H105.466V16.2305H103.354L102.373 16.1582L102.147 17.2417C102.046 17.3862 101.92 17.5548 101.769 17.7474C101.618 17.94 101.518 18.2289 101.468 18.6142C101.468 19.3847 101.543 20.0589 101.694 20.6367C101.895 21.1664 102.096 21.6721 102.297 22.1536C102.398 22.4907 102.499 22.8037 102.599 23.0927C102.7 23.3334 102.775 23.5983 102.826 23.8872L103.505 24.754C103.706 24.8022 104.108 25.2115 104.712 25.982C105.164 26.2228 105.592 26.3913 105.994 26.4876C106.397 26.5358 106.774 26.5599 107.126 26.5599H107.503C107.654 26.5117 107.78 26.4876 107.88 26.4876H110.37C110.672 26.3432 111.074 26.2709 111.577 26.2709C111.678 26.2709 111.778 26.295 111.879 26.3432H113.086C113.74 26.3432 114.343 26.2228 114.897 25.982C115.048 26.0302 115.299 26.0542 115.651 26.0542H116.406C116.657 26.0061 116.934 25.9579 117.235 25.9098C117.487 25.8616 117.738 25.8375 117.99 25.8375C118.241 25.7894 118.518 25.7653 118.82 25.7653C118.719 26.0061 118.593 26.295 118.443 26.6321C118.342 26.921 118.216 27.234 118.065 27.5711L117.311 29.1603C117.11 29.6418 116.833 30.2678 116.481 31.0383L115.802 31.7607C115.5 32.8201 115.148 33.8554 114.746 34.8667L113.539 37.756C112.835 39.5378 112.156 41.3918 111.502 43.318C110.848 45.2442 110.571 47.6039 110.672 50.3969C110.873 50.6858 111.024 51.0229 111.124 51.4082C111.275 51.7934 111.401 52.2027 111.502 52.6361C111.602 53.1659 111.728 53.6956 111.879 54.2253C112.08 54.755 112.357 55.2365 112.709 55.6699V56.5367L113.388 56.8979C113.79 57.0905 114.318 57.3313 114.972 57.6202C115.173 57.9092 115.4 58.1018 115.651 58.1981C115.903 58.2944 116.23 58.4148 116.632 58.5593C116.682 58.7038 116.833 58.8964 117.085 59.1372H117.99C119.801 59.1372 121.083 58.6797 121.838 57.7647C122.542 56.9461 122.768 55.8385 122.517 54.442L121.838 53.7196C121.435 53.527 121.133 53.3585 120.932 53.214C120.781 53.1659 120.555 53.0455 120.253 52.8528C120.203 52.6121 120.102 52.4194 119.951 52.275C119.851 52.1305 119.725 51.962 119.574 51.7693C119.524 51.4323 119.574 50.9748 119.725 50.3969L119.876 49.6746C119.926 49.3856 119.926 49.1208 119.876 48.88C120.127 48.7355 120.253 48.4225 120.253 47.941C120.253 47.8447 120.278 47.7002 120.329 47.5076C120.379 47.2668 120.454 47.026 120.555 46.7852C120.857 46.2555 121.033 45.7258 121.083 45.1961C121.284 45.0516 121.41 44.9072 121.46 44.7627C121.511 44.5701 121.687 44.3293 121.988 44.0404L122.29 43.1736C122.441 42.5957 122.667 41.9215 122.969 41.151C123.271 40.3324 123.724 39.5619 124.327 38.8395C124.528 38.0209 124.78 37.2986 125.082 36.6725C125.434 35.9984 125.861 35.276 126.364 34.5055C126.666 33.5424 126.968 32.6515 127.27 31.8329C127.622 30.9661 127.999 30.1234 128.401 29.3047C128.804 28.5342 129.181 27.7397 129.533 26.921C129.885 26.1024 130.237 25.1633 130.589 24.1039C131.344 24.0558 132.174 23.9835 133.079 23.8872C134.034 23.7909 135.015 23.6705 136.021 23.5261C137.429 23.3334 138.863 23.1649 140.322 23.0204C141.78 22.8278 143.138 22.7315 144.396 22.7315C144.697 22.7315 144.974 22.7556 145.225 22.8037H146.357C146.609 22.7556 146.835 22.7074 147.036 22.6593L147.079 22.8308C146.815 23.2125 146.575 23.5889 146.357 23.9595C146.238 24.1882 146.12 24.4199 146.001 24.6529H145.035L144.846 24.6168C144.739 24.5963 144.592 24.5807 144.396 24.5807C143.24 24.5807 141.971 24.6686 140.586 24.8515L140.554 24.857L140.52 24.8606C139.085 25.0026 137.677 25.1681 136.295 25.3572C135.27 25.5041 134.268 25.625 133.29 25.7238L133.292 25.7256C132.851 25.7725 132.425 25.8123 132.015 25.8484C131.784 26.4836 131.555 27.0772 131.319 27.6253C130.956 28.4701 130.564 29.2911 130.148 30.0903L130.15 30.0921C129.775 30.8542 129.422 31.6396 129.092 32.4487L128.654 33.6857C128.508 34.1169 128.362 34.5671 128.215 35.0365L128.139 35.2748L128.001 35.4861C127.533 36.2029 127.143 36.8622 126.826 37.4653C126.593 37.9538 126.383 38.5496 126.208 39.2639L126.108 39.6684L125.836 39.9953C125.359 40.5664 125.016 41.1561 124.791 41.7668L124.784 41.7831L124.778 41.8011C124.493 42.5282 124.291 43.1319 124.163 43.6214L124.146 43.6918L124.122 43.7586L123.82 44.6254L123.677 45.039L123.354 45.3478C123.307 45.3928 123.271 45.4274 123.247 45.4543C123.151 45.6896 123.027 45.8937 122.888 46.0683C122.77 46.5725 122.579 47.0578 122.328 47.5238C122.28 47.6462 122.245 47.7617 122.222 47.8705L122.213 47.9139L122.202 47.9554C122.194 47.9863 122.189 48.0123 122.185 48.0313C122.184 48.0361 122.182 48.0401 122.181 48.0439C122.171 48.4307 122.098 48.9591 121.834 49.4615C121.825 49.6363 121.81 49.8089 121.781 49.9779L121.775 50.0086L121.77 50.0375L121.619 50.7599L121.609 50.8032L121.598 50.8448C121.563 50.9784 121.54 51.0935 121.523 51.1897C121.616 51.3007 121.7 51.4149 121.772 51.5328L121.839 51.5544L122.09 51.735C122.122 51.7577 122.184 51.7955 122.283 51.8506L122.701 52.0655L123.028 52.2226L123.273 52.4826L124.325 53.6023L124.42 54.1278C124.731 55.8539 124.501 57.5523 123.35 58.9096L123.354 58.9114C122.082 60.4537 120.095 60.9863 117.99 60.9863H116.285L115.719 60.4446C115.62 60.3501 115.498 60.2245 115.37 60.0762C115.209 60.0168 115.063 59.9648 114.934 59.9155C114.442 59.727 114.051 59.4333 113.742 59.1083C113.266 58.8949 112.857 58.7116 112.524 58.5521L112.486 58.534L112.45 58.5141L111.771 58.153L110.777 57.6257V56.2424C110.49 55.8077 110.25 55.3466 110.064 54.8573L110.036 54.7851L110.015 54.711C109.857 54.1539 109.724 53.5952 109.616 53.0352C109.533 52.68 109.432 52.3563 109.316 52.0583L109.278 51.959L109.252 51.856C109.197 51.6475 109.127 51.5118 109.065 51.4226L108.761 50.9856L108.742 50.4601C108.637 47.5278 108.92 44.9382 109.665 42.7456C110.327 40.7938 111.016 38.9127 111.732 37.1023L111.739 37.0861L111.745 37.0698L112.952 34.1805C113.327 33.2354 113.656 32.267 113.939 31.2749L114.059 30.8505L114.367 30.5237L114.833 30.0253C115.121 29.3894 115.35 28.8743 115.517 28.474L115.534 28.4343L115.742 27.9973C115.751 27.9773 115.769 27.9408 115.787 27.9034H115.651C115.494 27.9034 115.309 27.8968 115.112 27.8817C114.461 28.0898 113.783 28.1923 113.086 28.1923H111.422L111.307 28.1364C111.287 28.1389 111.269 28.1391 111.255 28.1418C111.205 28.1506 111.196 28.1569 111.215 28.149L110.826 28.3368H108.041L107.816 28.409H107.126C106.683 28.409 106.225 28.3786 105.755 28.3224L105.64 28.3079L105.526 28.2808C104.926 28.137 104.34 27.8989 103.774 27.5982L103.414 27.4068L103.167 27.0908C102.934 26.7935 102.753 26.5863 102.626 26.4479L102.371 26.3883L101.281 24.996L100.998 24.6366L100.921 24.1906C100.89 24.0164 100.848 23.8815 100.805 23.7789L100.785 23.7283L100.768 23.6777C100.666 23.3861 100.566 23.076 100.468 22.7495C100.271 22.2759 100.075 21.7824 99.8794 21.2688L99.8436 21.1785L99.8209 21.0846C99.6225 20.3246 99.5361 19.4941 99.5361 18.6142ZM147.291 22.5365C147.22 22.6355 147.148 22.7325 147.079 22.8308L147.036 22.6593C147.121 22.6186 147.206 22.5771 147.291 22.5365ZM142.962 10.9863C143.712 10.9863 144.442 11.0119 145.148 11.064C145.503 11.0901 145.847 11.1233 146.182 11.1633L147.155 11.306L147.572 11.3782L149.073 12.384L149.292 12.803C149.339 12.8922 149.404 12.9818 149.496 13.0757L150.31 13.7258L150.378 13.7836C151.067 14.3877 151.738 15.0856 152.393 15.8693C153.32 16.979 153.594 18.3791 153.526 19.8151C152.915 20.2438 152.261 20.6153 151.563 20.9257L151.057 20.8606C151.203 20.695 151.372 20.4768 151.563 20.2033C151.714 18.8068 151.487 17.7474 150.884 17.025C150.28 16.3027 149.677 15.6767 149.073 15.147L148.168 14.4246C147.916 14.1839 147.715 13.919 147.564 13.6301L146.81 13.1244C146.257 13.0281 145.653 12.9559 144.999 12.9077C144.345 12.8596 143.666 12.8355 142.962 12.8355C141.353 12.8355 139.668 12.9318 137.907 13.1244C136.197 13.3171 134.487 13.5338 132.777 13.7745C131.62 13.9672 130.463 14.1357 129.307 14.2802L125.987 14.5691C125.736 14.3283 125.409 14.0876 125.006 13.8468C124.654 13.5578 124.025 13.4375 123.12 13.4856L122.366 13.8468C122.165 14.232 121.963 14.6413 121.762 15.0747C120.656 15.1711 119.574 15.2674 118.518 15.3637L115.5 15.6526C113.74 15.7971 112.03 15.9415 110.37 16.086C108.71 16.1823 107.076 16.2305 105.466 16.2305V14.3813C107.023 14.3813 108.605 14.3348 110.213 14.2423C111.862 14.0988 113.561 13.9559 115.308 13.8125L118.326 13.5235H118.335C119.039 13.4594 119.754 13.3945 120.48 13.3303C120.533 13.2256 120.585 13.1217 120.638 13.0197L120.927 12.4689L121.502 12.1926L122.615 11.6599L123.013 11.64C123.956 11.5899 125.185 11.6519 126.128 12.3407C126.294 12.4421 126.455 12.5472 126.609 12.6567C126.62 12.6558 126.631 12.6558 126.642 12.6549L127.471 12.5827C128.132 12.5252 128.457 12.4951 129.11 12.4382C130.222 12.2987 131.335 12.1376 132.447 11.9525L132.496 11.9452C134.224 11.7019 135.953 11.4826 137.681 11.2879H137.689C139.514 11.0881 141.273 10.9863 142.962 10.9863Z" fill="white"/>
<path d="M88.994 10.4507C89.3896 10.6477 89.8291 10.7846 90.3234 10.8549H90.3216C91.3222 10.9908 92.2146 11.3967 92.9676 12.0386L93.284 12.3299L93.7576 12.7997L93.8234 13.4626C93.831 13.5384 93.8442 13.5886 93.8527 13.6192C94.0093 13.7689 94.1801 13.9221 94.3665 14.0781C94.7001 14.3096 95.0124 14.5663 95.301 14.8502C95.4331 14.9682 95.5545 15.0919 95.663 15.2235L95.8514 15.2635L96.9851 15.544L97.2283 16.6802C97.2899 16.9662 97.3479 17.1612 97.3929 17.283C97.4024 17.3086 97.4104 17.3284 97.4167 17.3431C97.6335 17.6077 97.7891 17.8874 97.8976 18.117C98.0452 18.4294 98.1723 18.78 98.2853 19.1459L98.5047 19.8597L98.1701 20.528C97.9826 20.9014 97.8311 21.2957 97.7166 21.7134L97.7129 21.7116C97.6519 21.9678 97.5656 22.2065 97.4551 22.4291C97.5234 22.5927 97.5703 22.7516 97.5996 22.8971L97.616 22.9772L97.6252 23.0573C97.6554 23.3288 97.6607 23.6601 97.6087 24.0115C98.6371 25.7507 99.5675 27.5811 100.401 29.5018C101.294 31.5146 102.305 33.4306 103.429 35.2506L103.751 35.7732L103.7 36.3832C103.668 36.7613 103.702 37.1014 103.788 37.4139C103.915 37.8772 104.063 38.3419 104.232 38.8088C104.482 39.3197 104.71 39.8491 104.91 40.3985C105.083 40.8698 105.225 41.3451 105.335 41.8243L105.432 42.3051L105.439 42.3397L105.444 42.3743C105.569 43.243 105.563 44.1616 105.45 45.1148L105.448 45.1276C105.336 46.0188 105.14 46.904 104.865 47.7826L104.861 47.8008L104.854 47.8172C104.566 48.6762 104.19 49.4873 103.722 50.2445L103.704 50.2737L103.685 50.301C103.227 50.9851 102.661 51.5684 101.977 52.0091C101.171 52.9625 100.208 53.7279 99.0881 54.2853C98.2369 54.7091 97.4531 55.2148 96.7346 55.804L96.6468 55.8768L96.5499 55.9387C95.8157 56.404 95.0031 56.721 94.1343 56.9093L94.1361 56.9112C93.5712 57.041 92.9875 57.1677 92.3861 57.2972C91.8659 57.5724 91.281 57.8654 90.6306 58.1676L90.5831 58.1895L90.5337 58.2095C89.7893 58.506 89.0214 58.8025 88.2296 59.0981L88.1802 59.1164L88.129 59.1309C87.2812 59.3947 86.4303 59.607 85.5762 59.7664L85.5196 59.7774L85.4629 59.7847C84.7583 59.8724 84.0871 59.9081 83.4587 59.8866C81.9871 60.3952 80.5198 60.7322 79.059 60.8827L79.0571 60.8809C77.5162 61.0892 75.8084 60.982 73.9644 60.6205C72.119 60.8399 70.3484 60.7549 68.6705 60.3237L68.6558 60.3182C66.9902 59.8758 65.4679 59.1791 64.1062 58.2186L64.0696 58.1913L64.0349 58.164C62.7803 57.1862 61.6658 56.048 60.6921 54.7551L60.6409 54.6859C60.0521 53.8237 59.5313 52.9348 59.0756 52.0218C59.4325 51.7029 59.7635 51.3672 60.0685 51.0148C60.2008 50.8628 60.3239 50.7042 60.4434 50.5432C60.9272 51.607 61.5081 52.6388 62.1898 53.637C63.0675 54.8025 64.0672 55.8222 65.1887 56.6963C66.3591 57.5218 67.6757 58.1288 69.1386 58.5173C70.6503 58.9057 72.2839 58.9786 74.0393 58.7358C75.8924 59.1243 77.5016 59.2214 78.867 59.0271C80.2811 58.8815 81.7196 58.5415 83.1826 58.0074C83.7677 58.0559 84.4504 58.0317 85.2306 57.9345C86.0108 57.7889 86.7911 57.5946 87.5713 57.3518C88.3515 57.0605 89.1073 56.7691 89.8388 56.4778C90.5703 56.1378 91.2042 55.8222 91.7406 55.5308C92.4233 55.3852 93.0816 55.2395 93.7155 55.0938C94.3982 54.9481 95.0078 54.7053 95.5442 54.3654C96.1661 53.8554 96.8294 53.4004 97.5337 52.9997L98.609 52.4261C99.4305 51.9587 100.14 51.3427 100.738 50.5778C101.274 50.2864 101.737 49.8494 102.127 49.2667C102.517 48.6354 102.834 47.9556 103.078 47.2272C103.322 46.4502 103.493 45.6733 103.59 44.8963C103.688 44.0708 103.688 43.3181 103.59 42.6383C103.493 42.1042 103.346 41.57 103.151 41.0359C102.956 40.5017 102.737 39.9918 102.493 39.5062C102.298 38.9721 102.127 38.4379 101.981 37.9038C101.835 37.3696 101.786 36.8112 101.835 36.2285C100.664 34.3346 99.6159 32.3437 98.6894 30.2557C97.7629 28.119 96.7145 26.1038 95.5442 24.21C95.7392 24.0158 95.8124 23.7001 95.7636 23.2631C95.7148 23.0203 95.5685 22.8989 95.3247 22.8989C95.0809 22.8503 94.9834 22.6561 95.0321 22.3162C95.5198 22.0734 95.8124 21.7092 95.9099 21.2236C96.0562 20.6894 96.2512 20.1796 96.4951 19.694C96.3 19.0627 96.1049 18.6499 95.9099 18.4557C95.7148 18.2129 95.5442 17.7516 95.3979 17.0718C95.2028 17.0232 95.0565 17.0475 94.959 17.1446C94.9102 17.2417 94.7883 17.266 94.5933 17.2174C94.4957 16.7804 94.3007 16.4405 94.0081 16.1977C93.7643 15.9549 93.4961 15.7364 93.2035 15.5421C92.9109 15.2993 92.6427 15.0565 92.3989 14.8137C92.1551 14.5224 92.0088 14.1339 91.96 13.6483C91.4236 13.1142 90.7897 12.7985 90.0582 12.7014C89.3755 12.6043 88.7416 12.4101 88.1565 12.1187C87.5225 12.5072 87.0349 12.8714 86.6935 13.2113C86.401 13.5512 86.0596 14.0611 85.6695 14.7409C85.1331 14.838 84.7186 14.8866 84.426 14.8866C84.1822 14.8866 83.8409 14.9109 83.402 14.9594C82.8168 15.6878 82.3048 16.3191 81.8659 16.8532C81.4758 17.3388 80.8419 17.7759 79.9641 18.1643V18.9656C79.574 19.0627 79.2327 19.2327 78.9401 19.4755C78.6475 19.6697 78.3549 19.8882 78.0624 20.131C77.8185 20.3738 77.5503 20.5923 77.2578 20.7866C76.9652 20.9808 76.5994 21.1265 76.1606 21.2236C75.7705 21.9034 75.2341 22.4376 74.5514 22.8261C73.9174 23.166 73.4298 23.7001 73.0885 24.4285C72.8446 24.4771 72.6252 24.5985 72.4301 24.7927C72.2839 24.987 72.1376 25.2055 71.9913 25.4483C71.845 25.6425 71.6743 25.8125 71.4793 25.9581C71.333 26.0553 71.1135 26.0553 70.8209 25.9581C69.5043 27.512 68.1389 29.1145 66.7248 30.7655C65.3106 32.368 64.0428 34.1404 62.9212 36.0828C61.8484 37.9766 61.0194 40.0647 60.4343 42.347C60.3233 42.7704 60.2358 43.2045 60.16 43.6471C59.9175 43.4005 59.6697 43.1593 59.4102 42.9297C59.1299 42.6816 58.8363 42.4478 58.5361 42.2195C58.5636 42.1049 58.5923 41.9908 58.6221 41.8771C59.2445 39.4524 60.1313 37.2125 61.2901 35.1668L61.2974 35.1541C62.4732 33.1178 63.8072 31.2493 65.3003 29.5546L69.3891 24.7563L70.2083 23.7894L70.7277 23.9605C70.7951 23.8629 70.8628 23.7672 70.9325 23.6746L71.0111 23.5672L71.1062 23.4743C71.3011 23.2802 71.5206 23.1085 71.7627 22.9663C72.2261 22.2384 72.8422 21.6349 73.6224 21.2072L73.8985 21.0251C74.1577 20.8298 74.3668 20.5916 74.5349 20.2985L74.9464 19.5829L75.7546 19.4026C76.0276 19.3422 76.1642 19.2715 76.2191 19.2351C76.4111 19.1076 76.5835 18.9669 76.7384 18.8126L76.7988 18.7525L76.8628 18.6979C77.1715 18.4417 77.4871 18.2063 77.8063 17.9895C77.8989 17.9157 77.9945 17.8472 78.0916 17.7819V16.9534L79.2034 16.4599C79.9413 16.1334 80.2741 15.8482 80.403 15.6878L80.4158 15.6732C80.8491 15.1458 81.3568 14.5188 81.9391 13.794L82.4237 13.1913L83.1954 13.1057C83.6574 13.0545 84.079 13.0219 84.426 13.0219C84.4533 13.0219 84.4882 13.0157 84.5321 13.0128C84.7804 12.6273 85.0268 12.2842 85.2727 11.9985L85.3184 11.9439L85.3696 11.8929C85.8539 11.4107 86.4756 10.9591 87.1745 10.5308L88.0614 9.98633L88.994 10.4507ZM88.0833 28.6532C89.0586 30.1585 89.9363 31.7853 90.7165 33.5334C91.4968 35.233 92.4233 36.8355 93.4961 38.3408C93.4961 38.8264 93.5205 39.1906 93.5692 39.4334C93.618 39.6276 93.7643 39.919 94.0081 40.3075C93.9593 40.9873 93.7643 41.4972 93.4229 41.8371C93.1304 42.177 92.8865 42.614 92.6915 43.1482C91.0823 43.9737 89.5462 44.7992 88.0833 45.6247C86.6204 46.4017 84.8649 47.0329 82.8168 47.5185C81.8415 47.5185 80.7687 47.6399 79.5984 47.8827C78.4768 48.077 77.3065 48.2227 76.0874 48.3198C74.9171 48.4169 73.7711 48.3926 72.6496 48.2469C71.528 48.1013 70.5527 47.6885 69.7238 47.0087C69.7725 45.8432 69.992 44.8235 70.3821 43.9494C70.7722 43.0753 71.2354 42.2498 71.7718 41.4729C72.3082 40.6959 72.8446 39.9433 73.381 39.2149C73.9662 38.4379 74.4538 37.5881 74.8439 36.6655C75.0878 36.5684 75.2341 36.5441 75.2828 36.5927C75.3316 36.5927 75.4535 36.5441 75.6486 36.447C76.7701 35.0388 78.038 33.8005 79.4521 32.7322C80.8663 31.6639 82.2804 30.5713 83.6946 29.4544C83.9384 29.6487 84.2066 29.8186 84.4992 29.9643C84.8405 30.0614 85.1575 30.1343 85.4501 30.1828C85.7426 30.1828 86.0108 30.11 86.2547 29.9643C86.4985 29.7701 86.6692 29.4787 86.7667 29.0902C87.0593 29.3816 87.3275 29.4301 87.5713 29.2359C87.8151 29.0417 87.9858 28.8474 88.0833 28.6532ZM87.425 31.4211L87.3263 31.4994L87.2184 31.5631C86.6748 31.8879 86.0717 32.0475 85.4501 32.0475H85.2946L85.1429 32.022C84.7689 31.9599 84.3816 31.8707 83.9853 31.758L83.8335 31.7124C82.7492 32.56 81.6687 33.3987 80.5841 34.2181C79.2972 35.1903 78.1407 36.3174 77.1151 37.6051L76.8573 37.9293L76.4861 38.115C76.385 38.1653 76.2721 38.214 76.1606 38.2607C75.7949 38.9853 75.3736 39.6721 74.8897 40.3166C74.3651 41.0289 73.8412 41.7671 73.3152 42.5291C72.8449 43.2103 72.4378 43.936 72.0937 44.7069C71.9218 45.092 71.7844 45.5396 71.6969 46.0599C72.0543 46.2258 72.4487 46.3411 72.891 46.3986C73.8757 46.5265 74.8891 46.5489 75.932 46.4624L75.9375 46.4606C76.8118 46.3909 77.6569 46.2955 78.472 46.1747L79.2784 46.0454C80.4266 45.8104 81.5203 45.6807 82.5535 45.6611C84.409 45.2095 85.9505 44.6432 87.2019 43.9786C88.4925 43.251 89.8391 42.5281 91.2377 41.8025C91.4462 41.3789 91.6957 40.9803 92.0021 40.6243L92.024 40.5952C91.9115 40.366 91.8137 40.125 91.7534 39.885L91.7424 39.8431L91.7333 39.7994C91.6812 39.5403 91.6549 39.2498 91.64 38.9472C90.6374 37.4837 89.7617 35.9376 89.0141 34.3092L89.0049 34.2909C88.544 33.2582 88.0434 32.2766 87.5146 31.3391C87.4842 31.3654 87.4569 31.3957 87.425 31.4211Z" fill="white"/>
<path d="M20.6531 1.05213C21.1789 1.11054 21.6916 1.23087 22.1796 1.41953C22.6193 1.53473 23.0438 1.67679 23.4502 1.85091C23.6924 1.95469 23.9629 2.04621 24.2637 2.12144C24.4924 2.1786 24.754 2.211 25.0535 2.211H25.953L26.516 2.9129C26.7168 3.16384 26.8888 3.43485 27.0407 3.71717L27.1595 3.69889L28.0133 3.55631L28.6751 4.11564C29.4929 4.80751 30.1851 5.66158 30.7628 6.64359H30.761C31.344 7.58639 31.7599 8.59636 31.9987 9.66871C32.2642 10.8117 32.2265 11.9635 31.8945 13.0923L31.8908 13.1069L31.8853 13.1216C31.5832 14.0881 31.0025 14.8512 30.2509 15.4356C30.2483 15.4468 30.2428 15.4573 30.24 15.4685L31.2034 16.4318L29.6019 17.7424C29.3374 17.959 29.071 18.2333 28.8104 18.5796C30.661 17.3446 32.2627 16.193 33.6166 15.1194L33.6623 15.0829L33.7098 15.0481C34.7961 14.2926 35.726 13.5944 36.5051 12.9534C37.4102 12.1993 38.3226 11.5154 39.24 10.9007C40.1598 10.2365 41.1068 9.62216 42.0791 9.0582L42.7811 8.62865C43.484 8.1894 44.1887 7.72247 44.8945 7.22851L45.0718 7.10421L45.2729 7.02378C45.3795 6.98114 45.5031 6.93784 45.6385 6.89401L45.7244 6.21587L46.9018 5.8704C47.6298 5.65629 48.2378 5.40813 48.7372 5.13925L48.761 5.12645L48.7866 5.11366C49.517 4.74853 50.2719 4.4103 51.0498 4.09919L52.2564 3.61663L53.1303 4.57809C53.6401 5.13882 54.1433 5.74531 54.644 6.39317C54.7373 6.50509 54.8503 6.5949 55.0535 6.64176L55.2912 6.67466L56.4118 6.74046L56.8817 7.75859C57.074 8.17517 57.2549 8.41361 57.3881 8.5464C57.7831 8.81284 58.1617 9.08075 58.5233 9.35066C59.1515 9.77618 59.6815 10.309 60.1029 10.9409L60.0992 10.9427C60.6814 11.7706 60.8723 12.8193 60.9255 13.7759L60.9548 14.2731L60.7317 14.7173C60.5177 15.1452 60.2587 15.608 59.9621 16.1046C59.8098 16.3787 59.6389 16.7952 59.4685 17.3915L59.3222 17.8996L58.9328 18.2579C57.7013 19.3866 56.4365 20.3944 55.1376 21.2775L55.123 21.2867C53.9181 22.0898 52.6653 22.8667 51.3643 23.6172C50.1592 24.3401 48.9068 25.0864 47.6074 25.8563L46.6988 26.4339C45.8469 26.9937 44.9796 27.6143 44.0955 28.2947C43.7263 28.7884 43.2963 29.2308 42.803 29.6144C42.3378 29.9762 41.8483 30.3367 41.3369 30.6947L41.3204 30.7075L41.3021 30.7185C40.9211 30.9725 40.5368 31.2479 40.1504 31.5465C39.9653 31.715 39.8051 31.9244 39.6714 32.1917L39.154 33.2263H38.0462C37.9106 33.3802 37.7641 33.5231 37.6074 33.6559C38.2646 34.7724 39.0229 35.595 39.8634 36.1747C41.0825 37.0153 42.459 37.6336 44.0078 38.0208C45.6124 38.4219 47.3752 38.6494 49.3021 38.6953C51.025 38.7363 52.8018 38.7549 54.6312 38.7611C54.7325 38.6555 54.8472 38.5525 54.984 38.4613C55.4831 38.1287 55.9991 38.0832 56.3588 38.1031L56.6586 38.136L56.8049 38.1597L56.9438 38.2073C57.7984 38.4921 58.5813 38.856 59.2528 39.3259C59.6623 39.6126 60.0573 39.9159 60.4374 40.2344L60.8122 40.5579C60.7353 40.8262 60.6627 41.0975 60.5928 41.3713C60.4819 41.7964 60.3944 42.2321 60.3186 42.6764C60.0762 42.4288 59.8284 42.1868 59.569 41.9562C59.1303 41.5663 58.6672 41.2007 58.1796 40.8595C57.6921 40.5183 57.0828 40.2258 56.3515 39.9821C56.059 39.9334 55.9127 40.0309 55.9127 40.2746C55.9615 40.4695 55.864 40.5914 55.6202 40.6401C53.4264 40.6401 51.3058 40.6158 49.2583 40.567C47.2107 40.5183 45.3094 40.2746 43.5544 39.8359C41.7994 39.3972 40.215 38.6904 38.8012 37.7156C37.3874 36.7407 36.2418 35.3028 35.3643 33.4018C35.5105 33.0118 35.7543 32.695 36.0955 32.4513C36.4856 32.2076 36.7781 31.8907 36.9731 31.5008C37.1681 31.4521 37.3387 31.4277 37.4849 31.4277C37.6312 31.3789 37.8018 31.3546 37.9968 31.3546C38.2406 30.8671 38.5575 30.4528 38.9475 30.1116C39.3862 29.7704 39.825 29.4536 40.2637 29.1611C40.7512 28.8199 41.2144 28.4787 41.6531 28.1375C42.0919 27.7963 42.4575 27.4064 42.75 26.9677C44.0663 25.9441 45.3582 25.0423 46.6257 24.2624C47.942 23.4825 49.2095 22.727 50.4283 21.9959C51.6958 21.2647 52.9146 20.5092 54.0846 19.7293C55.3033 18.9007 56.4977 17.9502 57.6678 16.8778C57.8628 16.1954 58.0821 15.6349 58.3259 15.1962C58.6184 14.7088 58.8622 14.2701 59.0572 13.8801C59.0084 13.0027 58.8378 12.3691 58.5453 11.9791C58.2528 11.5405 57.8871 11.1749 57.4484 10.8824C57.0584 10.59 56.644 10.2975 56.2052 10.005C55.8152 9.66384 55.474 9.17641 55.1815 8.54274C54.3527 8.494 53.6946 8.17717 53.2071 7.59225C52.7196 6.95859 52.2321 6.37367 51.7445 5.8375C51.0133 6.12996 50.3064 6.44679 49.6239 6.78799C48.9901 7.12919 48.2589 7.42165 47.4301 7.66537C47.3814 8.05531 47.4545 8.29903 47.6495 8.39651C47.8445 8.44526 47.9176 8.64023 47.8689 8.98143C47.6251 8.8352 47.357 8.71335 47.0645 8.61586C46.8207 8.51837 46.4551 8.56712 45.9676 8.76209C44.9926 9.44449 44.0175 10.0782 43.0425 10.6631C42.1163 11.1992 41.2144 11.7842 40.3369 12.4178C39.4594 13.0027 38.5818 13.6608 37.7043 14.3919C36.8756 15.0743 35.9005 15.8055 34.7793 16.5854C33.3655 17.7065 31.708 18.9007 29.8067 20.168C27.9054 21.4353 26.2479 22.8001 24.8341 24.2624C24.8829 23.6288 24.9804 22.9464 25.1266 22.2152C25.3216 21.4841 25.5654 20.7529 25.8579 20.0218C26.1504 19.2906 26.516 18.6082 26.9548 17.9746C27.3935 17.2922 27.881 16.7316 28.4173 16.2929C28.2223 16.0979 28.1248 15.9517 28.1248 15.8542C28.1248 15.708 28.1492 15.5861 28.1979 15.4887C28.2954 15.3424 28.3686 15.1962 28.4173 15.05C28.4661 14.9037 28.4661 14.6844 28.4173 14.3919C29.2948 13.9532 29.8555 13.344 30.0992 12.5641C30.343 11.7354 30.3673 10.9068 30.1723 10.0782C29.9773 9.20078 29.6361 8.37214 29.1486 7.59225C28.6611 6.76362 28.1004 6.08121 27.4667 5.54504L26.1504 5.76438C25.9066 5.52067 25.7116 5.25258 25.5654 4.96012C25.4191 4.61892 25.2485 4.32646 25.0535 4.08274C24.6147 4.08274 24.2004 4.034 23.8104 3.93651C23.6154 3.88777 23.4264 3.83293 23.2436 3.772L22.1833 3.36987C22.0005 3.30894 21.8116 3.25411 21.6166 3.20536C21.2753 3.05913 20.8853 2.96165 20.4466 2.9129C19.4715 3.44908 18.6915 4.13148 18.1065 4.96012C17.5703 5.78875 17.0828 6.66613 16.644 7.59225C16.254 8.46963 15.8396 9.34701 15.4008 10.2244C15.0108 11.1018 14.499 11.8573 13.8652 12.4909C13.2802 15.2206 12.5246 17.7552 11.5983 20.0949C10.7208 22.3858 9.81889 24.6767 8.89262 26.9677C8.01511 29.2586 7.18635 31.6227 6.40633 34.0598C5.67507 36.4482 5.18756 39.1047 4.94381 42.0293L4.21255 42.3218C3.9688 42.4193 3.89567 42.6386 3.99317 42.9798C4.18817 43.1261 4.2613 43.2479 4.21255 43.3454C4.21255 43.4429 4.18817 43.5891 4.13942 43.7841C3.99317 43.8816 3.92005 44.0034 3.92005 44.1497C3.9688 44.2959 3.89567 44.3934 3.70067 44.4421C3.45691 44.8321 3.35941 45.1976 3.40816 45.5388C3.50566 45.8313 3.62754 46.1238 3.77379 46.4162C3.92005 46.7087 3.99317 47.0011 3.99317 47.2936C4.04192 47.5861 3.89567 47.9029 3.55441 48.2441C4.04192 48.5365 4.55381 48.9021 5.09006 49.3408C4.70006 49.8282 4.55381 50.3157 4.65131 50.8031C4.79756 51.2905 4.99256 51.8023 5.23632 52.3385C5.52882 52.8259 5.79695 53.3865 6.0407 54.0202C6.33321 54.6051 6.47946 55.2387 6.47946 55.9211C6.91822 56.0186 7.30822 56.1892 7.64948 56.4329L8.67324 57.1641C9.0145 57.4566 9.38013 57.6759 9.77014 57.8221C10.1601 58.0171 10.6233 58.1146 11.1595 58.1146C12.9633 57.3347 14.4502 56.238 15.6202 54.8244C16.839 53.3621 17.9846 51.8267 19.0572 50.2182C20.1297 48.5609 21.2266 46.9524 22.3478 45.3926C23.5179 43.7841 24.956 42.4436 26.6623 41.3713C26.906 41.5175 27.1498 41.5906 27.3935 41.5906C27.686 41.5906 27.9054 41.7125 28.0517 41.9562C28.7829 42.9311 29.6117 43.8328 30.538 44.6615C31.513 45.4414 32.5124 46.2456 33.5361 47.0743C34.3649 47.6592 35.2668 48.2928 36.2418 48.9752C37.2656 49.6576 37.9968 50.0963 38.4356 50.2913C38.7768 50.4375 39.1912 50.4863 39.6787 50.4375C40.1662 50.3888 40.605 50.4863 40.995 50.73C41.0925 50.8275 41.19 50.9981 41.2875 51.2418C41.4338 51.4855 41.58 51.6317 41.7263 51.6805C43.7738 52.5091 45.8457 53.0453 47.942 53.289C50.0383 53.5327 52.5002 53.6058 55.3277 53.5084C57.3753 52.631 59.0084 51.4855 60.2272 50.072C60.3594 49.9194 60.4824 49.7601 60.6019 49.5985C60.8807 50.2139 61.1918 50.8183 61.5361 51.4118C60.1126 53.021 58.2688 54.2838 56.0645 55.2284L55.7427 55.3673L55.3917 55.3783C52.5002 55.4779 49.9407 55.4054 47.7263 55.148C45.4555 54.884 43.2202 54.3038 41.0243 53.4151V53.4115C40.3614 53.1518 39.9631 52.6419 39.7482 52.3056C39.0773 52.3589 38.3702 52.2989 37.6988 52.0113L37.6751 52.0022C37.0728 51.7345 36.2206 51.2106 35.2034 50.5326L35.1851 50.5216L35.1687 50.5088C34.192 49.8252 33.2868 49.1907 32.4557 48.6042L32.4063 48.5676L32.3588 48.5292C31.3377 47.7028 30.34 46.9013 29.3679 46.1238L29.3277 46.0909L29.2893 46.0561C28.404 45.264 27.6027 44.4044 26.8762 43.4861C25.7125 44.3298 24.7103 45.3265 23.867 46.4838C22.7642 48.018 21.6856 49.6023 20.6294 51.2345L20.6147 51.2564C19.5058 52.9195 18.3211 54.5092 17.059 56.0235L17.0572 56.0217C15.6862 57.6764 13.955 58.945 11.9018 59.8328L11.5471 59.9863H11.1595C10.4165 59.9863 9.67281 59.8533 8.98403 59.5202C8.47589 59.3141 8.01085 59.0315 7.58549 58.6867L6.56173 57.9556C6.43951 57.8683 6.28455 57.7959 6.07361 57.749L4.60743 57.4218V55.9211C4.60743 55.5163 4.52295 55.1709 4.36611 54.8573L4.3259 54.7769L4.29299 54.6928C4.08089 54.1415 3.85852 53.6807 3.6312 53.3018L3.57635 53.2104L3.53248 53.1135C3.2591 52.5122 3.03181 51.9201 2.85789 51.3405L2.83229 51.2564L2.81584 51.1705C2.73265 50.7546 2.73248 50.3551 2.7939 49.9769C2.72481 49.9327 2.65764 49.889 2.59098 49.849L0.536133 48.6151L2.03522 47.1145C1.88055 46.7918 1.74431 46.4648 1.63302 46.1311L1.57818 45.9702L1.55441 45.8039C1.42498 44.898 1.71483 44.0879 2.11383 43.4496L2.16319 43.3692C2.07745 43.0162 2.01826 42.5116 2.19975 41.9672C2.38722 41.4053 2.75908 41.0029 3.1833 40.7498C3.4607 38.1465 3.93692 35.7313 4.61657 33.5115L4.62388 33.4895C5.41408 31.0205 6.25439 28.6236 7.14491 26.2987L7.15039 26.2822L7.15771 26.2658C8.07958 23.9857 8.9773 21.7057 9.85058 19.4259L9.85789 19.4058C10.7421 17.1722 11.4696 14.7371 12.0352 12.098L12.1504 11.5587L12.5416 11.1676C13.0016 10.7076 13.3863 10.1465 13.6897 9.46399L13.7263 9.38722C14.1526 8.53465 14.5546 7.68278 14.9328 6.83186L14.942 6.81175L14.953 6.79164C15.4255 5.79416 15.9518 4.84399 16.5343 3.94382L16.5562 3.91092L16.5764 3.87985C17.3405 2.79748 18.3459 1.93286 19.5453 1.2733L20.0645 0.986328L20.6531 1.05213Z" fill="white"/>
</svg>
